# xmcd
#
# Track frame offsets: 
#        150
#        17615
#        33727
#        53447
#        69427
#        85102
#        101457
#        119505
#        135015
#        149922
#        170170
#        189700
#        204935
#        220332
#        235390
#
# Disc length: 3366 seconds
#
# Revision: 0
# Processed by: cddbd v1.5.2PL0 Copyright (c) Steve Scherf et al.
# Submitted via: ExactAudioCopy v1.0b1
#
DISCID=d60d240f
DTITLE=鄧麗君 - 懷念精選專輯DISC2-テレサ・テン No. 9
DYEAR=1900
DGENRE=
TTITLE0=北国の春
TTITLE1=とまり木
TTITLE2=襟裳岬
TTITLE3=くちなしの花
TTITLE4=津軽海峡冬景色
TTITLE5=長崎は今日も雨だった
TTITLE6=みちづれ
TTITLE7=星夜的離別
TTITLE8=中の島ブルース
TTITLE9=東京ブルース
TTITLE10=港町ブルース
TTITLE11=雪が降る
TTITLE12=おまえとふたり
TTITLE13=雨の慕情
TTITLE14=北酒場
EXTD=
EXTT0=
EXTT1=
EXTT2=
EXTT3=
EXTT4=
EXTT5=
EXTT6=
EXTT7=
EXTT8=
EXTT9=
EXTT10=
EXTT11=
EXTT12=
EXTT13=
EXTT14=
PLAYORDER=
